<svg width="31" height="31" viewBox="0 0 31 31" fill="none" xmlns="http://www.w3.org/2000/svg">
<rect width="31" height="31" rx="6.32653" fill="#00A2D6"/>
<path d="M24.1775 23.8683H21.8834C21.5777 23.8681 21.2823 23.7571 21.0521 23.5559C20.8219 23.3547 20.6724 23.0769 20.6313 22.7739L19.444 13.9314C19.4101 13.7624 19.3164 13.6113 19.1802 13.5057C19.0439 13.4001 18.8742 13.3471 18.702 13.3564H12.9575C12.7859 13.3478 12.6169 13.4012 12.4813 13.5067C12.3457 13.6123 12.2525 13.763 12.2186 13.9314L11.0314 22.7739C10.9902 23.0774 10.8402 23.3556 10.6094 23.5569C10.3785 23.7582 10.0824 23.8689 9.77611 23.8683H7.48203C7.40003 23.8683 7.32139 23.9009 7.26341 23.9589C7.20543 24.0169 7.17285 24.0955 7.17285 24.1775C7.17285 24.2595 7.20543 24.3382 7.26341 24.3961C7.32139 24.4541 7.40003 24.4867 7.48203 24.4867H24.1775C24.2595 24.4867 24.3381 24.4541 24.3961 24.3961C24.4541 24.3382 24.4867 24.2595 24.4867 24.1775C24.4867 24.0955 24.4541 24.0169 24.3961 23.9589C24.3381 23.9009 24.2595 23.8683 24.1775 23.8683ZM17.0665 20.4303C17.0681 20.4752 17.0607 20.5199 17.0447 20.5619C17.0287 20.6038 17.0043 20.6421 16.9732 20.6745C16.942 20.7068 16.9046 20.7325 16.8633 20.75C16.8219 20.7676 16.7775 20.7766 16.7326 20.7766H14.927C14.8821 20.7766 14.8376 20.7676 14.7963 20.75C14.7549 20.7325 14.7176 20.7068 14.6864 20.6745C14.6552 20.6421 14.6309 20.6038 14.6148 20.5619C14.5988 20.5199 14.5914 20.4752 14.5931 20.4303V18.3032C14.5931 17.9752 14.7234 17.6606 14.9553 17.4287C15.1872 17.1968 15.5018 17.0665 15.8298 17.0665C16.1578 17.0665 16.4723 17.1968 16.7042 17.4287C16.9362 17.6606 17.0665 17.9752 17.0665 18.3032V20.4303Z" fill="white"/>
<path d="M10.8829 11.0623C10.8812 11.2006 10.9071 11.3378 10.9589 11.466C11.0106 11.5942 11.0874 11.7109 11.1846 11.8093C11.2818 11.9076 11.3975 11.9857 11.5251 12.039C11.6527 12.0923 11.7896 12.1197 11.9279 12.1197H19.7315C19.8698 12.1197 20.0067 12.0923 20.1343 12.039C20.2619 11.9857 20.3776 11.9076 20.4748 11.8093C20.572 11.7109 20.6487 11.5942 20.7005 11.466C20.7523 11.3378 20.7781 11.2006 20.7765 11.0623V8.10041C20.7765 7.85441 20.6788 7.61849 20.5048 7.44455C20.3309 7.2706 20.095 7.17288 19.849 7.17288C19.603 7.17288 19.3671 7.2706 19.1931 7.44455C19.0192 7.61849 18.9214 7.85441 18.9214 8.10041V8.40958C18.9214 8.57358 18.8563 8.73086 18.7403 8.84682C18.6244 8.96279 18.4671 9.02794 18.3031 9.02794C18.1391 9.02794 17.9818 8.96279 17.8659 8.84682C17.7499 8.73086 17.6847 8.57358 17.6847 8.40958V7.79123C17.6847 7.62724 17.6196 7.46996 17.5036 7.35399C17.3877 7.23803 17.2304 7.17288 17.0664 7.17288C16.9024 7.17288 16.7451 7.23803 16.6292 7.35399C16.5132 7.46996 16.448 7.62724 16.448 7.79123V8.40958C16.448 8.57358 16.3829 8.73086 16.2669 8.84682C16.151 8.96279 15.9937 9.02794 15.8297 9.02794C15.6657 9.02794 15.5084 8.96279 15.3925 8.84682C15.2765 8.73086 15.2113 8.57358 15.2113 8.40958V7.79123C15.2113 7.62724 15.1462 7.46996 15.0302 7.35399C14.9143 7.23803 14.757 7.17288 14.593 7.17288C14.429 7.17288 14.2717 7.23803 14.1558 7.35399C14.0398 7.46996 13.9746 7.62724 13.9746 7.79123V8.40958C13.9746 8.57358 13.9095 8.73086 13.7935 8.84682C13.6776 8.96279 13.5203 9.02794 13.3563 9.02794C13.1923 9.02794 13.035 8.96279 12.919 8.84682C12.8031 8.73086 12.7379 8.57358 12.7379 8.40958V8.10041C12.7379 7.85441 12.6402 7.61849 12.4663 7.44455C12.2923 7.2706 12.0564 7.17288 11.8104 7.17288C11.5644 7.17288 11.3285 7.2706 11.1546 7.44455C10.9806 7.61849 10.8829 7.85441 10.8829 8.10041V11.0623Z" fill="white"/>
</svg>
