<svg width="16" height="16" viewBox="0 0 16 16" fill="none" xmlns="http://www.w3.org/2000/svg">
<path d="M6.26662 2C5.67728 2 5.19995 2.47733 5.19995 3.06667V12.6667C5.19995 13.256 5.67728 13.7333 6.26662 13.7333H10.5333C11.1226 13.7333 11.6 13.256 11.6 12.6667V3.06667C11.6 2.47733 11.1226 2 10.5333 2H6.26662Z" fill="#006FD6"/>
<path d="M3.06667 3.06668C2.47733 3.06668 2 3.54401 2 4.13335V11.6C2 12.1893 2.47733 12.6667 3.06667 12.6667H4.13333V3.06668H3.06667Z" fill="#006FD6"/>
<path d="M12.6667 3.06668V12.6667H13.7334C14.3227 12.6667 14.8001 12.1893 14.8001 11.6V4.13335C14.8001 3.54401 14.3227 3.06668 13.7334 3.06668H12.6667Z" fill="#006FD6"/>
</svg>
