<svg width="16" height="16" viewBox="0 0 16 16" fill="none" xmlns="http://www.w3.org/2000/svg">
<path fill-rule="evenodd" clip-rule="evenodd" d="M3.06667 2C2.47733 2 2 2.47733 2 3.06667V4.13333H14.8V3.06667C14.8 2.47733 14.3227 2 13.7333 2H3.06667ZM2.53333 5.2V12.6667C2.53333 13.256 3.01067 13.7333 3.6 13.7333H13.2C13.7893 13.7333 14.2667 13.256 14.2667 12.6667V5.2H2.53333ZM10 6.8H6.8C6.5056 6.8 6.26667 7.03893 6.26667 7.33333C6.26667 7.62773 6.5056 7.86667 6.8 7.86667H10C10.2944 7.86667 10.5333 7.62773 10.5333 7.33333C10.5333 7.03893 10.2944 6.8 10 6.8Z" fill="#72809D"/>
</svg>
