<svg width="16" height="16" viewBox="0 0 13 13" fill="none" xmlns="http://www.w3.org/2000/svg">
<path fill-rule="evenodd" clip-rule="evenodd" d="M6.02708 0.152083C6.12674 0.0546 6.2606 9.08441e-06 6.4 0C6.53415 0.000418845 6.66321 0.0513739 6.76146 0.142708L10.1333 2.90104V2.13333C10.1333 1.83893 10.3723 1.6 10.6667 1.6H11.2C11.4944 1.6 11.7333 1.83893 11.7333 2.13333V4.20937L12.5854 4.90625C12.598 4.91577 12.6102 4.92585 12.6219 4.93646L12.6302 4.94271C12.7386 5.04369 12.8001 5.18519 12.8 5.33333C12.8 5.62789 12.5612 5.86667 12.2667 5.86667H11.7333V11.7333C11.7333 12.3227 11.256 12.8 10.6667 12.8H2.13333C1.544 12.8 1.06667 12.3227 1.06667 11.7333V5.86667H0.533333C0.238781 5.86667 0 5.62789 0 5.33333C0.000180116 5.18556 0.0616657 5.04448 0.169792 4.94375V4.94271L0.189583 4.92604C0.196057 4.92068 0.202656 4.91547 0.209375 4.91042L6.02708 0.152083ZM10.1333 6.93333H8V11.2H10.1333V6.93333Z" fill="#72809D"/>
</svg>
