<svg width="20" height="20" viewBox="0 0 20 20" fill="none" xmlns="http://www.w3.org/2000/svg">
<path d="M10 2.6667C9.46957 2.6667 8.96086 2.87742 8.58579 3.25249C8.21071 3.62756 8 4.13627 8 4.6667C8 5.19714 8.21071 5.70584 8.58579 6.08092C8.96086 6.45599 9.46957 6.6667 10 6.6667C10.5304 6.6667 11.0391 6.45599 11.4142 6.08092C11.7893 5.70584 12 5.19714 12 4.6667C12 4.13627 11.7893 3.62756 11.4142 3.25249C11.0391 2.87742 10.5304 2.6667 10 2.6667ZM10 8.00004C9.46957 8.00004 8.96086 8.21075 8.58579 8.58582C8.21071 8.96089 8 9.4696 8 10C8 10.5305 8.21071 11.0392 8.58579 11.4142C8.96086 11.7893 9.46957 12 10 12C10.5304 12 11.0391 11.7893 11.4142 11.4142C11.7893 11.0392 12 10.5305 12 10C12 9.4696 11.7893 8.96089 11.4142 8.58582C11.0391 8.21075 10.5304 8.00004 10 8.00004ZM10 13.3334C9.46957 13.3334 8.96086 13.5441 8.58579 13.9192C8.21071 14.2942 8 14.8029 8 15.3334C8 15.8638 8.21071 16.3725 8.58579 16.7476C8.96086 17.1227 9.46957 17.3334 10 17.3334C10.5304 17.3334 11.0391 17.1227 11.4142 16.7476C11.7893 16.3725 12 15.8638 12 15.3334C12 14.8029 11.7893 14.2942 11.4142 13.9192C11.0391 13.5441 10.5304 13.3334 10 13.3334Z" fill="#C3C3C3"/>
</svg>
