<svg width="31" height="31" viewBox="0 0 31 31" fill="none" xmlns="http://www.w3.org/2000/svg">
<rect width="31" height="31" rx="6.32653" fill="#00A2D6"/>
<path d="M22.978 13.1875C22.753 13.0531 22.5093 13.2969 22.5093 13.65V16.0594C22.5093 16.4094 22.753 16.6531 22.978 16.5219C23.4374 16.2656 23.7499 15.6219 23.7499 14.8687C23.7499 14.1156 23.4374 13.4719 22.978 13.1875Z" fill="white"/>
<path d="M7.73125 17.3812C7.94433 17.4218 8.14014 17.5259 8.29296 17.6799C8.44578 17.8338 8.54845 18.0304 8.5875 18.2437L9.9 23.7687C9.92826 23.9385 10.0197 24.0913 10.156 24.1964C10.2923 24.3015 10.4633 24.3511 10.6347 24.3352C10.806 24.3194 10.9651 24.2393 11.0798 24.111C11.1945 23.9828 11.2564 23.8158 11.2531 23.6437V12.25C11.2509 12.2 11.2376 12.1512 11.2142 12.107C11.1908 12.0628 11.1579 12.0244 11.1178 11.9945C11.0777 11.9646 11.0315 11.944 10.9825 11.9341C10.9335 11.9243 10.8829 11.9254 10.8344 11.9375L7.89688 12.6719C7.4327 12.7902 7.02019 13.0576 6.72268 13.433C6.42517 13.8084 6.25911 14.2711 6.25 14.75V15.6875C6.25032 16.0784 6.38683 16.457 6.63607 16.7581C6.8853 17.0592 7.23168 17.2641 7.61562 17.3375L7.73125 17.3812Z" fill="white"/>
<path d="M13.1657 19.75C13.4196 19.6494 13.6472 19.4923 13.8313 19.2906C14.0272 19.0828 14.2778 18.9346 14.5543 18.8633C14.8308 18.7919 15.1219 18.8003 15.3938 18.8875L19.6157 20.1656C19.7245 20.1964 19.8206 20.2612 19.8898 20.3507C19.959 20.4401 19.9977 20.5494 20.0001 20.6625C19.998 20.731 20.0094 20.7993 20.0338 20.8634C20.0581 20.9275 20.0948 20.9862 20.1418 21.0362C20.1888 21.0861 20.2452 21.1262 20.3078 21.1544C20.3703 21.1825 20.4378 21.198 20.5063 21.2H20.7251C20.8619 21.1992 20.9932 21.1454 21.0911 21.0498C21.189 20.9542 21.246 20.8243 21.2501 20.6875V9.21875C21.2501 9.07868 21.1944 8.94435 21.0954 8.8453C20.9964 8.74626 20.862 8.69062 20.722 8.69062H20.5032C20.4347 8.69304 20.3673 8.70895 20.3049 8.73743C20.2425 8.76592 20.1863 8.80643 20.1396 8.85664C20.0928 8.90685 20.0565 8.96578 20.0325 9.03006C20.0086 9.09433 19.9976 9.1627 20.0001 9.23125C19.9974 9.34689 19.9568 9.45845 19.8845 9.54878C19.8122 9.63911 19.7123 9.70321 19.6001 9.73125L12.9032 11.7187C12.7883 11.7467 12.6862 11.8124 12.6131 11.9054C12.54 11.9983 12.5002 12.113 12.5001 12.2312V19.2781C12.4986 19.3585 12.5168 19.4381 12.5531 19.5098C12.5893 19.5816 12.6426 19.6434 12.7082 19.69C12.7738 19.7365 12.8498 19.7662 12.9295 19.7767C13.0092 19.7872 13.0903 19.778 13.1657 19.75Z" fill="white"/>
</svg>
