<svg width="18" height="18" viewBox="0 0 18 18" fill="none" xmlns="http://www.w3.org/2000/svg">
<path d="M1.5 4H3.5" stroke="#A1AACE" stroke-width="1.5" stroke-linecap="round" stroke-linejoin="round"/>
<path d="M1.5 9H3.5" stroke="#A1AACE" stroke-width="1.5" stroke-linecap="round" stroke-linejoin="round"/>
<path d="M1.5 13H3.5" stroke="#A1AACE" stroke-width="1.5" stroke-linecap="round" stroke-linejoin="round"/>
<path d="M13.4477 1.5H3.05228C2.74726 1.5 2.5 1.74726 2.5 2.05228V15.9477C2.5 16.2527 2.74726 16.5 3.05228 16.5H13.4477C13.7527 16.5 14 16.2527 14 15.9477V2.05228C14 1.74726 13.7527 1.5 13.4477 1.5Z" stroke="#A1AACE" stroke-width="1.5" stroke-linecap="round" stroke-linejoin="round"/>
<path d="M10.9478 4.5H6.55301C6.248 4.5 6.00073 4.74727 6.00073 5.05228V7.44772C6.00073 7.75274 6.248 8 6.55301 8H10.9478C11.2528 8 11.5001 7.75274 11.5001 7.44772V5.05228C11.5001 4.74727 11.2528 4.5 10.9478 4.5Z" stroke="#A1AACE" stroke-width="1.5" stroke-linecap="round" stroke-linejoin="round"/>
<path d="M14 2.5V11.5H15.5V11.5C16.0523 11.5 16.5 11.0523 16.5 10.5V3.5C16.5 2.94772 16.0523 2.5 15.5 2.5H14Z" stroke="#A1AACE" stroke-width="1.5" stroke-linecap="round" stroke-linejoin="round"/>
<path d="M14 5.5H16.5" stroke="#A1AACE" stroke-width="1.5" stroke-linecap="round" stroke-linejoin="round"/>
<path d="M14 8.5H16.5" stroke="#A1AACE" stroke-width="1.5" stroke-linecap="round" stroke-linejoin="round"/>
</svg>
