<svg width="16" height="18" viewBox="0 0 16 18" fill="none" xmlns="http://www.w3.org/2000/svg">
<path fill-rule="evenodd" clip-rule="evenodd" d="M6.49608 1.4336C6.49608 0.641536 7.13761 0 7.92968 0C8.72174 0 9.36328 0.641536 9.36328 1.4336V1.6212C11.835 2.25885 13.6641 4.49724 13.6641 7.168V8.8844C13.6641 10.0241 13.8981 11.1448 14.3347 12.1856H1.52468C1.96121 11.1441 2.19528 10.0241 2.19528 8.8844V7.168C2.19528 4.49724 4.02437 2.25885 6.49608 1.6212V1.4336ZM0.132407 13.9746C0.262726 13.7514 0.503173 13.6155 0.761677 13.6192H7.92968H15.0977C15.3562 13.6155 15.5966 13.7514 15.7269 13.9746C15.8573 14.1979 15.8573 14.4741 15.7269 14.6974C15.5966 14.9206 15.3562 15.0565 15.0977 15.0528H9.95548C10.0374 15.2829 10.0796 15.5253 10.0801 15.7696C10.0801 16.9572 9.11731 17.92 7.92968 17.92C6.74204 17.92 5.77928 16.9572 5.77928 15.7696C5.78025 15.5252 5.82286 15.2828 5.90528 15.0528H0.761677C0.503173 15.0565 0.262726 14.9206 0.132407 14.6974C0.00208827 14.4741 0.00208827 14.1979 0.132407 13.9746Z" fill="#72809D"/>
</svg>
