<svg width="18" height="18" viewBox="0 0 18 18" fill="none" xmlns="http://www.w3.org/2000/svg">
<path d="M1.65309 6.68614L2.54575 7.57881C2.77555 7.80865 3.04838 7.99097 3.34864 8.11536C3.64891 8.23975 3.97074 8.30377 4.29575 8.30377C4.62077 8.30377 4.9426 8.23975 5.24286 8.11536C5.54313 7.99097 5.81595 7.80865 6.04575 7.57881L7.35842 6.26681C7.47334 6.15191 7.5645 6.0155 7.62669 5.86536C7.68889 5.71523 7.7209 5.55432 7.7209 5.39181C7.7209 5.2293 7.68889 5.06839 7.62669 4.91825C7.5645 4.76812 7.47334 4.63171 7.35842 4.51681L4.80575 1.96414C4.68098 1.83815 4.53063 1.7404 4.36485 1.6775C4.19907 1.61459 4.02172 1.58799 3.84477 1.59949C3.66783 1.61099 3.49542 1.66033 3.33917 1.74416C3.18293 1.828 3.0465 1.94439 2.93909 2.08548C0.26642 5.71748 1.88442 9.54281 5.17109 12.8288C8.45775 16.1148 12.2824 17.7335 15.9144 15.0608C16.0555 14.9534 16.1719 14.817 16.2557 14.6607C16.3396 14.5045 16.3889 14.3321 16.4004 14.1551C16.4119 13.9782 16.3853 13.8008 16.3224 13.635C16.2595 13.4693 16.1617 13.3189 16.0358 13.1941L13.4838 10.6415C13.3689 10.5266 13.2324 10.4354 13.0823 10.3732C12.9322 10.311 12.7713 10.279 12.6088 10.279C12.4462 10.279 12.2853 10.311 12.1352 10.3732C11.9851 10.4354 11.8487 10.5266 11.7338 10.6415L10.4211 11.9541C10.1912 12.1839 10.0089 12.4568 9.88454 12.757C9.76015 13.0573 9.69613 13.3791 9.69613 13.7041C9.69613 14.0292 9.76015 14.351 9.88454 14.6513C10.0089 14.9515 10.1912 15.2243 10.4211 15.4541L11.3238 16.3568" stroke="#A1AACE" stroke-width="1.5" stroke-linecap="round" stroke-linejoin="round"/>
</svg>
