<svg width="16" height="18" viewBox="0 0 16 18" fill="none" xmlns="http://www.w3.org/2000/svg">
<path d="M8 9C9.38071 9 10.5 7.88071 10.5 6.5C10.5 5.11929 9.38071 4 8 4C6.61929 4 5.5 5.11929 5.5 6.5C5.5 7.88071 6.61929 9 8 9Z" stroke="#A1AACE" stroke-width="1.5" stroke-linecap="round" stroke-linejoin="round"/>
<path d="M8 1.5V1.5C10.7614 1.5 13 3.73857 13 6.5C13 8.77134 9.61734 14.4667 8.41667 16.2767V16.2767C8.26403 16.5068 7.95374 16.5696 7.72362 16.417C7.66796 16.38 7.62026 16.3323 7.58334 16.2767C6.38267 14.4667 3 8.77134 3 6.5V6.5C3 3.73858 5.23857 1.5 8 1.5L8 1.5Z" stroke="#A1AACE" stroke-width="1.5" stroke-linecap="round" stroke-linejoin="round"/>
</svg>
