<svg width="17" height="17" viewBox="0 0 17 17" fill="none" xmlns="http://www.w3.org/2000/svg">
<path d="M4.49933 16H2C1.73478 16 1.48043 15.8946 1.29289 15.7071C1.10536 15.5196 1 15.2652 1 15V2C1 1.73478 1.10536 1.48043 1.29289 1.29289C1.48043 1.10536 1.73478 1 2 1H4.49933" stroke="#A1AACE" stroke-width="1.3" stroke-linecap="round" stroke-linejoin="round"/>
<path d="M12.4993 16H14.9993C15.2645 16 15.5188 15.8946 15.7064 15.7071C15.8939 15.5196 15.9993 15.2652 15.9993 15V2C15.9993 1.73478 15.8939 1.48043 15.7064 1.29289C15.5188 1.10536 15.2645 1 14.9993 1H12.4993" stroke="#A1AACE" stroke-width="1.3" stroke-linecap="round" stroke-linejoin="round"/>
<path d="M12.4993 9.5V8.5C12.4993 6.02467 10.6993 4 8.49927 4C6.29927 4 4.49927 6.02467 4.49927 8.5V12.5" stroke="#A1AACE" stroke-width="1.3" stroke-linecap="round" stroke-linejoin="round"/>
<path d="M12.5 12.5V11.5" stroke="#A1AACE" stroke-width="1.3" stroke-linecap="round" stroke-linejoin="round"/>
<path d="M6.5 11.5V12.5" stroke="#A1AACE" stroke-width="1.3" stroke-linecap="round" stroke-linejoin="round"/>
<path d="M10.4993 12.5V9C10.4993 7.62467 9.59993 6.5 8.49927 6.5C7.39927 6.5 6.49927 7.62467 6.49927 9V9.5" stroke="#A1AACE" stroke-width="1.3" stroke-linecap="round" stroke-linejoin="round"/>
<path d="M8.5 12V12.5" stroke="#A1AACE" stroke-width="1.3" stroke-linecap="round" stroke-linejoin="round"/>
<path d="M8.5 8.5V10" stroke="#A1AACE" stroke-width="1.3" stroke-linecap="round" stroke-linejoin="round"/>
</svg>
