<svg width="36" height="36" viewBox="0 0 36 36" fill="none" xmlns="http://www.w3.org/2000/svg">
<path fill-rule="evenodd" clip-rule="evenodd" d="M18 36C27.9411 36 36 27.9411 36 18C36 8.05887 27.9411 0 18 0C8.05887 0 0 8.05887 0 18C0 27.9411 8.05887 36 18 36Z" fill="#D8D8D8"/>
<path fill-rule="evenodd" clip-rule="evenodd" d="M13.5201 14.224C13.5201 11.8909 15.411 10 17.7441 10C20.0771 10 21.9681 11.8909 21.9681 14.224V14.928C21.9681 17.2611 20.0771 19.152 17.7441 19.152C15.411 19.152 13.5201 17.2611 13.5201 14.928V14.224ZM10.2627 24.1433C11.3039 22.7895 14.9225 21.264 17.7427 21.264C20.5629 21.264 24.1829 22.7902 25.2241 24.1433C25.8675 24.9803 25.255 26.192 24.1997 26.192H11.2871C10.2318 26.192 9.61926 24.9803 10.2627 24.1433Z" fill="#72809D"/>
</svg>
